<svg width="158" height="19" viewBox="0 0 158 19" fill="none" xmlns="http://www.w3.org/2000/svg">
<path d="M8.1361 18.4319C3.6481 18.4319 0.000101596 15.2159 0.000101596 9.28795C0.000101596 3.43195 3.7681 -5.29289e-05 8.2561 -5.29289e-05C10.5121 -5.29289e-05 12.3121 1.07995 13.4641 2.27995L11.5921 4.53595C10.7041 3.67195 9.6721 3.04795 8.3281 3.04795C5.6401 3.04795 3.6241 5.35195 3.6241 9.16795C3.6241 13.0319 5.4481 15.3599 8.2561 15.3599C9.7681 15.3599 10.9681 14.6399 11.9281 13.6079L13.8001 15.8159C12.3361 17.5199 10.4401 18.4319 8.1361 18.4319ZM16.6615 18.0959V0.335947H20.2135V7.31995H26.9335V0.335947H30.4615V18.0959H26.9335V10.4159H20.2135V18.0959H16.6615ZM38.1616 10.7759H42.3856L41.8576 8.83195C41.3056 6.98395 40.8256 4.94395 40.2976 3.02395H40.2016C39.7456 4.96795 39.2176 6.98395 38.6896 8.83195L38.1616 10.7759ZM44.4016 18.0959L43.1536 13.5359H37.3936L36.1456 18.0959H32.5456L38.2336 0.335947H42.4096L48.1216 18.0959H44.4016ZM51.877 18.0959V3.28795H46.885V0.335947H60.469V3.28795H55.429V18.0959H51.877ZM114.654 18.0959V11.5919L109.326 0.335947H113.094L114.87 4.65595C115.374 5.97595 115.854 7.22395 116.406 8.59195H116.502C117.054 7.22395 117.582 5.97595 118.086 4.65595L119.862 0.335947H123.558L118.206 11.5919V18.0959H114.654ZM132.21 18.4319C127.506 18.4319 124.266 14.9039 124.266 9.14395C124.266 3.35995 127.506 -5.29289e-05 132.21 -5.29289e-05C136.914 -5.29289e-05 140.154 3.38395 140.154 9.14395C140.154 14.9039 136.914 18.4319 132.21 18.4319ZM132.21 15.3599C134.85 15.3599 136.53 12.9359 136.53 9.14395C136.53 5.32795 134.85 3.04795 132.21 3.04795C129.57 3.04795 127.89 5.32795 127.89 9.14395C127.89 12.9359 129.57 15.3599 132.21 15.3599ZM150.438 18.4319C146.118 18.4319 143.526 16.0079 143.526 10.1039V0.335947H147.078V10.4159C147.078 14.1119 148.35 15.3599 150.438 15.3599C152.55 15.3599 153.894 14.1119 153.894 10.4159V0.335947H157.302V10.1039C157.302 16.0079 154.782 18.4319 150.438 18.4319Z" fill="white"/>
<path d="M63.349 18.0959V0.335947H74.293V3.28795H66.901V7.91995H73.213V10.8959H66.901V18.0959H63.349ZM84.1629 18.4319C79.4589 18.4319 76.2189 14.9039 76.2189 9.14395C76.2189 3.35995 79.4589 -5.29289e-05 84.1629 -5.29289e-05C88.8669 -5.29289e-05 92.1069 3.38395 92.1069 9.14395C92.1069 14.9039 88.8669 18.4319 84.1629 18.4319ZM84.1629 15.3599C86.8029 15.3599 88.4829 12.9359 88.4829 9.14395C88.4829 5.32795 86.8029 3.04795 84.1629 3.04795C81.5229 3.04795 79.8429 5.32795 79.8429 9.14395C79.8429 12.9359 81.5229 15.3599 84.1629 15.3599ZM99.1276 3.14395V8.56795H101.432C103.712 8.56795 104.96 7.60795 104.96 5.71195C104.96 3.79195 103.712 3.14395 101.432 3.14395H99.1276ZM109.208 18.0959H105.248L101.6 11.3759H99.1276V18.0959H95.5756V0.335947H101.768C105.488 0.335947 108.44 1.63195 108.44 5.71195C108.44 8.37595 107.096 10.0319 105.056 10.8239L109.208 18.0959Z" fill="url(#paint0_linear_1001_5118)"/>
<defs>
<linearGradient id="paint0_linear_1001_5118" x1="-1.2959" y1="8.09595" x2="159.704" y2="8.09595" gradientUnits="userSpaceOnUse">
<stop stop-color="#8A3CFF"/>
<stop offset="1" stop-color="#C678FF"/>
</linearGradient>
</defs>
</svg>
