<svg width="20" height="22" viewBox="0 0 20 22" fill="none" xmlns="http://www.w3.org/2000/svg">
<path d="M13.472 19.002C13.3516 19.8354 12.9349 20.5974 12.2984 21.1486C11.6618 21.6998 10.848 22.0032 10.006 22.0032C9.16397 22.0032 8.35015 21.6998 7.7136 21.1486C7.07705 20.5974 6.66041 19.8354 6.53998 19.002H13.472ZM10.006 2.35371e-07C12.2165 -0.000206746 14.3401 0.860723 15.9264 2.40017C17.5127 3.93963 18.4369 6.03649 18.503 8.246V8.501H18.507V12.613L19.921 16.257C19.959 16.3557 19.9846 16.4577 19.998 16.563L20.008 16.72C20.0081 17.0371 19.8906 17.3429 19.6781 17.5783C19.4657 17.8137 19.1734 17.9618 18.858 17.994L18.728 18H1.28098C1.0838 18.0002 0.889251 17.9547 0.712508 17.8673C0.535765 17.7799 0.381608 17.6528 0.262064 17.496C0.14252 17.3392 0.06082 17.1569 0.0233382 16.9633C-0.0141436 16.7697 -0.00639414 16.5701 0.0459822 16.38L0.0879821 16.256L1.50398 12.612V8.502C1.50372 7.38543 1.72345 6.27974 2.15062 5.24811C2.5778 4.21649 3.20404 3.27913 3.99357 2.48959C4.78311 1.70006 5.72047 1.07381 6.7521 0.646641C7.78373 0.219469 8.88941 -0.000262518 10.006 2.35371e-07Z" fill="white"/>
</svg>
