<svg width="24" height="24" viewBox="0 0 24 24" fill="none" xmlns="http://www.w3.org/2000/svg">
<path d="M8.49805 12.4473C10.781 12.4473 12.7883 13.0958 13.9473 14.0752C14.792 13.7163 15.8501 13.5 17 13.5C19.6081 13.5 21.7487 14.5985 21.9785 16H22V20H2V16H2.00098C2.02184 14.036 4.92223 12.4473 8.49805 12.4473ZM17 7C18.5188 7.00001 19.75 8.23122 19.75 9.75C19.75 11.2688 18.5188 12.5 17 12.5C15.4812 12.5 14.25 11.2688 14.25 9.75C14.25 8.23122 15.4812 7 17 7ZM8.49805 4C10.4718 4.00003 12.0723 5.60043 12.0723 7.57422C12.0721 9.54787 10.4717 11.1474 8.49805 11.1475C6.52434 11.1475 4.924 9.54789 4.92383 7.57422C4.92383 5.60041 6.52423 4 8.49805 4Z" fill="#6F6F8F"/>
</svg>
