<svg width="24" height="24" viewBox="0 0 24 24" fill="none" xmlns="http://www.w3.org/2000/svg">
<path d="M10.6831 4.29175C11.437 3.63229 12.5629 3.6324 13.3169 4.29175L21.0366 11.0466C21.4535 11.4114 21.196 12.0973 20.6421 12.0974H19.2515V19.2019C19.2515 19.7541 18.8037 20.2018 18.2515 20.2019H14.5591V15.3767C14.5588 14.2724 13.6634 13.3768 12.5591 13.3767H11.4399C10.3357 13.3769 9.44022 14.2725 9.43994 15.3767V20.2019H5.74756C5.19527 20.2019 4.74756 19.7542 4.74756 19.2019V12.0974H3.35889C2.80494 12.0974 2.54669 11.4115 2.96338 11.0466L10.6831 4.29175Z" fill="url(#paint0_linear_1018_603)"/>
<defs>
<linearGradient id="paint0_linear_1018_603" x1="2.75732" y1="12.0001" x2="21.2428" y2="12.0001" gradientUnits="userSpaceOnUse">
<stop stop-color="#8A3CFF"/>
<stop offset="1" stop-color="#C678FF"/>
</linearGradient>
</defs>
</svg>
