<svg width="25" height="24" viewBox="0 0 25 24" fill="none" xmlns="http://www.w3.org/2000/svg">
<path fill-rule="evenodd" clip-rule="evenodd" d="M0 3C0 2.44772 0.447715 2 1 2H13C13.5523 2 14 2.44772 14 3V6C14 6.55228 13.5523 7 13 7C12.4477 7 12 6.55228 12 6V4H2V20H12V18C12 17.4477 12.4477 17 13 17C13.5523 17 14 17.4477 14 18V21C14 21.5523 13.5523 22 13 22H1C0.447715 22 0 21.5523 0 21V3Z" fill="#6F6F8F"/>
<path fill-rule="evenodd" clip-rule="evenodd" d="M8.05884 12C8.05884 11.4477 8.40323 11 8.82807 11L22.2896 11C22.7144 11 23.0588 11.4477 23.0588 12C23.0588 12.5523 22.7144 13 22.2896 13L8.82807 13C8.40323 13 8.05884 12.5523 8.05884 12Z" fill="#6F6F8F"/>
<path fill-rule="evenodd" clip-rule="evenodd" d="M16.5897 18.188C16.2097 17.7871 16.2267 17.1542 16.6275 16.7742L21.664 12L16.6275 7.22575C16.2267 6.8458 16.2097 6.21286 16.5897 5.81204C16.9696 5.41122 17.6026 5.3943 18.0034 5.77424L23.8056 11.2742C24.0048 11.4631 24.1176 11.7255 24.1176 12C24.1176 12.2745 24.0048 12.5369 23.8056 12.7258L18.0034 18.2258C17.6026 18.6057 16.9696 18.5888 16.5897 18.188Z" fill="#6F6F8F"/>
</svg>
