<svg width="24" height="24" viewBox="0 0 24 24" fill="none" xmlns="http://www.w3.org/2000/svg">
<path d="M19 4.51843C20.1046 4.51843 21 5.41386 21 6.51843V14.5184C21 15.623 20.1046 16.5184 19 16.5184H15.46C15.168 16.5184 14.8902 16.6464 14.7002 16.868L12.7588 19.1327C12.3597 19.598 11.6403 19.5979 11.2412 19.1327L9.2998 16.868C9.10982 16.6464 8.83196 16.5184 8.54004 16.5184H5C3.89543 16.5184 3 15.623 3 14.5184V6.51843C3 5.41386 3.89543 4.51843 5 4.51843H19ZM7 9.26843C6.30964 9.26843 5.75 9.82808 5.75 10.5184C5.75 11.2088 6.30964 11.7684 7 11.7684C7.69036 11.7684 8.25 11.2088 8.25 10.5184C8.25 9.82808 7.69036 9.26843 7 9.26843ZM12 9.26843C11.3096 9.26843 10.75 9.82808 10.75 10.5184C10.75 11.2088 11.3096 11.7684 12 11.7684C12.6904 11.7684 13.25 11.2088 13.25 10.5184C13.25 9.82808 12.6904 9.26843 12 9.26843ZM17 9.26843C16.3096 9.26843 15.75 9.82808 15.75 10.5184C15.75 11.2088 16.3096 11.7684 17 11.7684C17.6904 11.7684 18.25 11.2088 18.25 10.5184C18.25 9.82808 17.6904 9.26843 17 9.26843Z" fill="url(#paint0_linear_1015_244)"/>
<defs>
<linearGradient id="paint0_linear_1015_244" x1="3" y1="12" x2="21" y2="12" gradientUnits="userSpaceOnUse">
<stop stop-color="#8A3CFF"/>
<stop offset="1" stop-color="#C678FF"/>
</linearGradient>
</defs>
</svg>
